<svg width="520" height="539" fill="none" xmlns="http://www.w3.org/2000/svg"><path d="M437.478 438.9h-235.13c-17.481 0-31.652-16.088-31.652-35.933V211.75L319.913 100.1 469.13 211.75v191.217c0 19.845-14.171 35.933-31.652 35.933z" stroke="#D8CCBF" stroke-width="30" stroke-linecap="round" stroke-linejoin="round"/><path d="M317.652 438.9H82.522c-17.481 0-31.652-16.088-31.652-35.933V211.75L200.087 100.1l149.217 111.65v191.217c0 19.845-14.171 35.933-31.652 35.933z" stroke="#D8CCBF" stroke-width="30" stroke-linecap="round" stroke-linejoin="round"/><path d="M200.041 375.233c-21.403 0-41.356-12.024-53.375-32.159-3.152-5.281-1.936-12.463 2.715-16.041 4.653-3.582 10.979-2.198 14.131 3.081 8.228 13.787 21.884 22.019 36.529 22.019 14.644 0 28.3-8.232 36.528-22.019 3.152-5.278 9.479-6.661 14.131-3.081 4.652 3.578 5.867 10.76 2.715 16.041-12.019 20.135-31.972 32.159-53.374 32.159z" fill="#D8CCBF"/><path d="M200.041 375.233c-21.403 0-41.356-12.024-53.375-32.159-3.152-5.281-1.936-12.463 2.715-16.041 4.653-3.582 10.979-2.198 14.131 3.081 8.228 13.787 21.884 22.019 36.529 22.019 14.644 0 28.3-8.232 36.528-22.019 3.152-5.278 9.479-6.661 14.131-3.081 4.652 3.578 5.867 10.76 2.715 16.041-12.019 20.135-31.972 32.159-53.374 32.159zm64.096-98.975c8.181 0 14.814-7.529 14.814-16.817s-6.633-16.819-14.814-16.819c-8.181 0-14.813 7.531-14.813 16.819s6.632 16.817 14.813 16.817zm-113.175-16.817c0 9.288-6.633 16.817-14.814 16.817-8.181 0-14.813-7.529-14.813-16.817s6.632-16.819 14.813-16.819c8.181 0 14.814 7.531 14.814 16.819z" fill="#D8CCBF"/><path d="M262.998 250.695c-4.254 0-7.703 3.916-7.703 8.745 0 4.83 3.449 8.745 7.703 8.745h2.278c4.255 0 7.704-3.915 7.704-8.745 0-4.829-3.449-8.745-7.704-8.745h-2.278z" fill="#D8CCBF"/><path d="M262.998 250.695c-4.254 0-7.703 3.916-7.703 8.745 0 4.83 3.449 8.745 7.703 8.745h2.278c4.255 0 7.704-3.915 7.704-8.745 0-4.829-3.449-8.745-7.704-8.745h-2.278zm-127.989 0c-4.254 0-7.703 3.916-7.703 8.745 0 4.83 3.449 8.745 7.703 8.745h2.278c4.255 0 7.704-3.915 7.704-8.745 0-4.829-3.449-8.745-7.704-8.745h-2.278z" fill="#D8CCBF"/><path d="M135.009 250.695c-4.254 0-7.703 3.916-7.703 8.745 0 4.83 3.449 8.745 7.703 8.745h2.278c4.255 0 7.704-3.915 7.704-8.745 0-4.829-3.449-8.745-7.704-8.745h-2.278z" fill="#D8CCBF"/></svg>