<svg width="60" height="55" fill="none" xmlns="http://www.w3.org/2000/svg"><g clip-path="url(#clip0_1_125)"><path d="M43.699 44.786h-27.13a3.66 3.66 0 01-3.653-3.667V21.607l17.218-11.393L47.35 21.607V41.12a3.66 3.66 0 01-3.652 3.667z" stroke="#fff" stroke-width="30" stroke-linecap="round" stroke-linejoin="round"/><path d="M29.385 38.31a7.425 7.425 0 01-6.158-3.282 1.181 1.181 0 01.313-1.636 1.17 1.17 0 011.63.314 5.081 5.081 0 004.215 2.247 5.08 5.08 0 004.215-2.247 1.171 1.171 0 011.63-.314 1.18 1.18 0 01.314 1.636 7.425 7.425 0 01-6.159 3.282z" fill="#7837F3"/><path d="M29.385 38.31a7.425 7.425 0 01-6.158-3.282 1.181 1.181 0 01.313-1.636 1.17 1.17 0 011.63.314 5.081 5.081 0 004.215 2.247 5.08 5.08 0 004.215-2.247 1.171 1.171 0 011.63-.314 1.18 1.18 0 01.314 1.636 7.425 7.425 0 01-6.159 3.282zm7.396-10.12c.944 0 1.71-.769 1.71-1.716 0-.948-.766-1.717-1.71-1.717s-1.71.769-1.71 1.717c0 .947.766 1.716 1.71 1.716zm-13.059-1.716c0 .947-.765 1.716-1.709 1.716-.944 0-1.71-.769-1.71-1.716 0-.948.766-1.717 1.71-1.717s1.71.769 1.71 1.717z" fill="#7837F3"/><path d="M36.65 25.581a.89.89 0 00-.89.892.89.89 0 00.89.893h.262c.491 0 .89-.4.89-.893a.89.89 0 00-.89-.892h-.262z" fill="#7837F3"/><path d="M36.65 25.581a.89.89 0 00-.89.892.89.89 0 00.89.893h.262c.491 0 .89-.4.89-.893a.89.89 0 00-.89-.892h-.262zm-14.769 0a.89.89 0 00-.888.892.89.89 0 00.889.893h.262a.89.89 0 00.89-.893.89.89 0 00-.89-.892h-.262z" fill="#7837F3"/><path d="M21.881 25.581a.89.89 0 00-.888.892.89.89 0 00.889.893h.262a.89.89 0 00.89-.893.89.89 0 00-.89-.892h-.262z" fill="#7837F3"/></g><defs><clipPath id="clip0_1_125"><path fill="#fff" d="M0 0h60v55H0z"/></clipPath></defs></svg>